<svg width="34" height="40" viewBox="0 0 34 40" fill="none" xmlns="http://www.w3.org/2000/svg">
<path d="M32.7134 9.89612C33.0141 9.58145 33.0987 9.11693 32.9274 8.7177C32.7562 8.3174 32.3623 8.05731 31.9278 8.05731H23.6499L24.9086 5.35904C26.1095 5.73793 27.3992 5.25201 27.9098 4.16135C28.4182 3.07069 27.9612 1.77132 26.8994 1.09381L27.1691 0.51584C27.2537 0.333885 27.1755 0.118751 26.9936 0.0341956C26.8116 -0.0503597 26.5965 0.0277737 26.5119 0.209728L26.2422 0.787701C25.0403 0.408808 23.7516 0.894733 23.2421 1.98539C22.7326 3.07604 23.1907 4.37541 24.2525 5.05293L22.8493 8.05624H2.07012C1.6345 8.05624 1.24169 8.31633 1.07044 8.71663C0.899189 9.11693 0.983744 9.58145 1.2845 9.89505L16.0068 25.2766V38.0969H11.9171C11.3915 38.0969 10.9655 38.5229 10.9655 39.0484C10.9655 39.574 11.3905 40.001 11.9171 40.001H22.0819C22.6074 40.001 23.0334 39.575 23.0334 39.0484C23.0334 38.524 22.6085 38.0969 22.0819 38.0969H17.9911V25.2777L32.7134 9.89612ZM21.8346 10.2322L20.4272 13.2516H9.09784L17 21.507L24.9022 13.2516H21.2278L22.6352 10.2322H29.3815L17 23.1681L4.61641 10.2322H21.8346Z" fill="#435A70"/>
</svg>
