<svg width="40" height="40" viewBox="0 0 40 40" fill="none" xmlns="http://www.w3.org/2000/svg">
<path d="M38.968 12.588C37.5973 11.2173 35.367 11.2173 33.9958 12.5884C33.5741 13.0105 30.8815 15.7052 30.4702 16.117V6.83016C30.4702 5.89109 30.1045 5.00828 29.4404 4.3443L26.1259 1.02969C25.4619 0.365625 24.5791 0 23.64 0H3.51703C1.57851 0 0.00140381 1.57711 0.00140381 3.51562V36.4844C0.00140381 38.4229 1.57851 40 3.51703 40H26.9545C28.893 40 30.4702 38.4229 30.4702 36.4844V26.0649L38.968 17.5599C40.3419 16.186 40.3423 13.9621 38.968 12.588ZM23.439 2.34375C23.6604 2.34375 24.087 2.30539 24.4687 2.68695L27.7832 6.00156C28.1551 6.37352 28.1265 6.78109 28.1265 7.03125H23.439V2.34375ZM28.1264 36.4844C28.1264 37.1305 27.6008 37.6562 26.9545 37.6562H3.51703C2.87086 37.6562 2.34515 37.1305 2.34515 36.4844V3.51562C2.34515 2.86945 2.87086 2.34375 3.51703 2.34375H21.0952V8.20312C21.0952 8.85031 21.6198 9.375 22.267 9.375H28.1264V18.4627C28.1264 18.4627 24.6691 21.923 24.6689 21.9231L23.0124 23.5797C22.8838 23.7083 22.7868 23.8652 22.7293 24.0377L21.072 29.0096C20.9316 29.4307 21.0412 29.895 21.3551 30.2088C21.6694 30.5231 22.1338 30.6322 22.5543 30.492L27.5262 28.8347C27.6987 28.7772 27.8556 28.6802 27.9842 28.5516L28.1264 28.4094V36.4844ZM25.4983 24.4084L27.1555 26.0656L26.5225 26.6987L24.0366 27.5273L24.8652 25.0413L25.4983 24.4084ZM28.8125 24.408L27.1552 22.7507C28.0377 21.8675 31.9572 17.9447 32.7884 17.1127L34.4457 18.77L28.8125 24.408ZM37.3104 15.903L36.1023 17.112L34.4451 15.4548L35.6535 14.2453C36.1107 13.7884 36.854 13.7884 37.3109 14.2453C37.7677 14.7023 37.7701 15.4432 37.3104 15.903Z" fill="#435A70"/>
<path d="M22.267 11.7188H5.86079C5.21361 11.7188 4.68892 12.2434 4.68892 12.8906C4.68892 13.5378 5.21361 14.0625 5.86079 14.0625H22.267C22.9142 14.0625 23.4389 13.5378 23.4389 12.8906C23.4389 12.2434 22.9142 11.7188 22.267 11.7188Z" fill="#435A70"/>
<path d="M17.5795 16.4062H5.86079C5.21361 16.4062 4.68892 16.9309 4.68892 17.5781C4.68892 18.2253 5.21361 18.75 5.86079 18.75H17.5795C18.2267 18.75 18.7514 18.2253 18.7514 17.5781C18.7514 16.9309 18.2267 16.4062 17.5795 16.4062Z" fill="#435A70"/>
<path d="M17.5795 21.0938H5.86079C5.21361 21.0938 4.68892 21.6184 4.68892 22.2656C4.68892 22.9128 5.21361 23.4375 5.86079 23.4375H17.5795C18.2267 23.4375 18.7514 22.9128 18.7514 22.2656C18.7514 21.6184 18.2267 21.0938 17.5795 21.0938Z" fill="#435A70"/>
<path d="M17.5795 25.7812H5.86079C5.21361 25.7812 4.68892 26.3059 4.68892 26.9531C4.68892 27.6003 5.21361 28.125 5.86079 28.125H17.5795C18.2267 28.125 18.7514 27.6003 18.7514 26.9531C18.7514 26.3059 18.2267 25.7812 17.5795 25.7812Z" fill="#435A70"/>
</svg>
