<svg width="86" height="67" viewBox="0 0 86 67" fill="none" xmlns="http://www.w3.org/2000/svg">
<path d="M61.5872 11.769C61.5872 11.769 60.6967 25.4567 55.9362 32.1504C51.1757 38.844 42.5452 38.5441 42.5452 38.5441C42.5452 38.5441 38.8023 30.3991 43.5629 23.7053C48.3234 17.0116 61.5872 11.769 61.5872 11.769Z" fill="#249EA0"/>
<path d="M24.9479 21.3891C24.9479 21.3891 31.8507 23.8494 36.0716 28.0843C40.2924 32.3192 39.0717 37.2309 39.0717 37.2309C39.0717 37.2309 34.3415 38.6134 30.0316 34.079C25.7217 29.5446 24.9479 21.3891 24.9479 21.3891Z" fill="#F78104"/>
<path d="M8.46 50.12V57H6.56V50.14C6.56 49.4333 6.40667 48.88 6.1 48.48C5.80667 48.08 5.36 47.88 4.76 47.88C4.14667 47.88 3.68 48.0933 3.36 48.52C3.04 48.9467 2.88 49.5267 2.88 50.26V57H0.98V46.3H2.88V47.26C3.41333 46.54 4.20667 46.18 5.26 46.18C6.52667 46.18 7.40667 46.6533 7.9 47.6C8.5 46.6533 9.41333 46.18 10.64 46.18C11.8133 46.18 12.6733 46.52 13.22 47.2C13.78 47.88 14.06 48.78 14.06 49.9V57H12.16V50.12C12.16 48.6267 11.5533 47.88 10.34 47.88C9.74 47.88 9.28 48.0867 8.96 48.5C8.64 48.9 8.47333 49.44 8.46 50.12ZM15.52 53.58C15.52 52.5533 15.8533 51.7133 16.52 51.06C17.2 50.3933 18.0733 50.06 19.14 50.06C20.1133 50.06 20.8533 50.3 21.36 50.78V49.88C21.36 48.44 20.7267 47.72 19.46 47.72C18.86 47.72 18.4133 47.88 18.12 48.2C17.84 48.52 17.6933 48.9267 17.68 49.42H15.9C15.9133 48.4467 16.22 47.6667 16.82 47.08C17.4333 46.48 18.32 46.18 19.48 46.18C21.9867 46.18 23.24 47.4867 23.24 50.1V57H21.56V56.16C20.9867 56.8267 20.18 57.16 19.14 57.16C18.1 57.16 17.2333 56.8333 16.54 56.18C15.86 55.5267 15.52 54.66 15.52 53.58ZM17.9 52.16C17.54 52.5333 17.36 53.0067 17.36 53.58C17.36 54.1533 17.5467 54.6333 17.92 55.02C18.2933 55.4067 18.7733 55.6 19.36 55.6C19.9333 55.6 20.4133 55.4067 20.8 55.02C21.2 54.6333 21.4 54.1533 21.4 53.58C21.4 53.0067 21.2 52.5333 20.8 52.16C20.4133 51.7733 19.9267 51.58 19.34 51.58C18.7533 51.58 18.2733 51.7733 17.9 52.16ZM30.9197 57V50.14C30.9197 48.6333 30.2864 47.88 29.0197 47.88C28.393 47.88 27.9064 48.0867 27.5597 48.5C27.2264 48.9133 27.0597 49.48 27.0597 50.2V57H25.1597V46.3H27.0597V47.26C27.553 46.54 28.3597 46.18 29.4797 46.18C30.6264 46.18 31.4664 46.5267 31.9997 47.22C32.5464 47.9 32.8197 48.8067 32.8197 49.94V57H30.9197ZM43.35 47.74V46.3H45.19V55.18C45.19 57.0867 44.6767 58.4733 43.65 59.34C42.6367 60.22 41.2833 60.66 39.59 60.66C37.99 60.66 36.5967 60.2733 35.41 59.5L36.15 58C37.1767 58.6667 38.33 59 39.61 59C40.69 59 41.57 58.7333 42.25 58.2C42.9433 57.68 43.29 56.8733 43.29 55.78V55.48C43.01 55.92 42.5567 56.3133 41.93 56.66C41.3167 57.0067 40.5767 57.18 39.71 57.18C38.0967 57.18 36.7767 56.6733 35.75 55.66C34.7367 54.6333 34.23 53.3 34.23 51.66C34.23 50.0867 34.7433 48.7733 35.77 47.72C36.7967 46.6533 38.0967 46.12 39.67 46.12C40.4567 46.12 41.1767 46.2733 41.83 46.58C42.4833 46.8733 42.99 47.26 43.35 47.74ZM36.15 51.66C36.15 52.7667 36.4833 53.68 37.15 54.4C37.83 55.12 38.6967 55.48 39.75 55.48C40.8167 55.48 41.6833 55.1267 42.35 54.42C43.03 53.7 43.37 52.78 43.37 51.66C43.37 50.54 43.03 49.62 42.35 48.9C41.67 48.18 40.8033 47.82 39.75 47.82C38.6967 47.82 37.83 48.18 37.15 48.9C36.4833 49.62 36.15 50.54 36.15 51.66ZM51.4123 46.28V48.22H50.8923C49.6523 48.22 49.0323 48.9067 49.0323 50.28V57H47.1323V46.3H49.0323V47.34C49.4857 46.62 50.279 46.2667 51.4123 46.28ZM53.5719 51.66C53.5719 52.7667 53.9052 53.68 54.5719 54.4C55.2519 55.1067 56.1185 55.46 57.1719 55.46C58.2252 55.46 59.0852 55.1067 59.7519 54.4C60.4319 53.68 60.7719 52.7667 60.7719 51.66C60.7719 50.5533 60.4319 49.64 59.7519 48.92C59.0852 48.2 58.2252 47.84 57.1719 47.84C56.1052 47.84 55.2385 48.2 54.5719 48.92C53.9052 49.6267 53.5719 50.54 53.5719 51.66ZM51.6519 51.66C51.6519 50.0467 52.1719 48.72 53.2119 47.68C54.2652 46.64 55.5852 46.12 57.1719 46.12C58.7852 46.12 60.1052 46.64 61.1319 47.68C62.1719 48.72 62.6919 50.04 62.6919 51.64C62.6919 53.24 62.1652 54.5667 61.1119 55.62C60.0585 56.66 58.7385 57.18 57.1519 57.18C55.5519 57.18 54.2319 56.6667 53.1919 55.64C52.1652 54.6133 51.6519 53.2867 51.6519 51.66ZM64.7163 46.3L67.8363 54.7L70.9363 46.3H72.9163L68.8363 57H66.7563L62.6162 46.3H64.7163ZM83.2633 52.22H74.8033C74.8699 53.2333 75.2099 54.0333 75.8233 54.62C76.4366 55.1933 77.2499 55.48 78.2633 55.48C79.7299 55.48 80.8433 54.7733 81.6033 53.36L83.0633 54.12C82.6766 55.0133 82.0766 55.7467 81.2633 56.32C80.4499 56.8933 79.4499 57.18 78.2633 57.18C76.6499 57.18 75.3433 56.68 74.3433 55.68C73.3433 54.68 72.8433 53.3467 72.8433 51.68C72.8433 50.0533 73.3299 48.72 74.3033 47.68C75.2766 46.64 76.5299 46.12 78.0633 46.12C79.6366 46.12 80.8966 46.5933 81.8433 47.54C82.8033 48.4867 83.2899 49.76 83.3033 51.36C83.3033 51.72 83.2899 52.0067 83.2633 52.22ZM78.0433 47.76C77.1766 47.76 76.4566 48.02 75.8833 48.54C75.3233 49.06 74.9833 49.7733 74.8633 50.68H81.3233C81.2566 49.8 80.9233 49.0933 80.3233 48.56C79.7366 48.0267 78.9766 47.76 78.0433 47.76Z" fill="white"/>
</svg>
